<?xml version="1.0" encoding="UTF-8" standalone="no"?>
<!DOCTYPE svg PUBLIC "-//W3C//DTD SVG 1.1//EN" "http://www.w3.org/Graphics/SVG/1.1/DTD/svg11.dtd">
<svg xmlns="http://www.w3.org/2000/svg" version="1.1" width="40" height="40">
    <g id="wb" transform="matrix(0.77573871,0,0,0.77573871,1.1065042,1.5417581)">
        <path d="m 25,5.767 c -2.106,0 -3.812,0.879 -3.812,1.963 l 1.517,2.65 C 6.655,24.47 16.998,37.516 16.998,37.516 h 16.005 c 0,0 7.05,-8.672 0.763,-19.51 l -2.99,4.827 c -0.67,1.084 -1.962,1.49 -2.897,0.911 -0.935,-0.578 -1.147,-1.917 -0.477,-3 l 3.887,-6.277 a 35.382,35.382 0 0 0 -3.993,-4.086 l 1.517,-2.65 c 0,-1.085 -1.707,-1.964 -3.812,-1.964 z"
              fill="#f0f0f0" stroke-linejoin="round" stroke-width="1.2" stroke="#1e1e1e" id="path1449"/>
        <path d="m 25,5.767 c -0.816,0 -1.571,0.134 -2.191,0.358 4.338,0.848 4.976,1.12 2.56,4.351 l 3.246,3.567 c -3.657,8.24 -1.604,7.991 -1.604,7.991 0,0 0.696,-2.648 4.112,-7.768 A 35.696,35.696 0 0 0 27.296,10.38 L 28.812,7.73 C 28.812,6.646 27.106,5.767 25,5.767 Z m 8.765,12.238 -1.009,1.513 c 3.737,8.413 -4.134,17.997 -4.134,17.997 h 4.381 c 0.158,0.034 6.958,-8.844 0.762,-19.51 z"
              opacity="0.15" id="path1451"/>
        <path d="M 15.145,31.721 C 14.925,31.69 11.722,21.935 20.899,12.97 18.597,14.865 13.764,26.133 15.145,31.721 Z M 23.292,10.196 21.815,7.602 c 0,0 0.242,-0.722 1.78,-1.048 -1.726,1.35 -0.987,1.663 -0.303,3.642 z"
              fill="#ffffff" id="path1453"/>
        <path d="m 25,36.457 c 0,0 -9.13,0.048 -11.691,1.62 -1.727,1.06 -2.135,3.65 -1.9,6.323 h 27.182 c 0.235,-2.672 -0.172,-5.264 -1.9,-6.324 -2.56,-1.57 -11.69,-1.619 -11.69,-1.619 z"
              fill="#f0f0f0" stroke-linejoin="round" stroke-width="1.2" stroke="#1e1e1e" id="path1455"/>
        <path d="m 25,37.147 c 0,0 -8.712,-0.137 -11.624,1.666 -0.37,0.229 -0.7,0.84 -0.954,1.39 0.261,-0.331 0.502,-0.613 0.887,-0.85 C 15.869,37.784 25,37.736 25,37.736 c 0,0 9.132,0.048 11.692,1.619 0.391,0.24 0.592,0.532 0.856,0.87 0.026,-0.076 -0.409,-1.158 -1.144,-1.596 C 33.648,37.136 25,37.147 25,37.147 Z"
              fill="#ffffff" id="path1457"/>
    </g>
</svg>