<?xml version="1.0" encoding="UTF-8" standalone="no"?>
<!DOCTYPE svg PUBLIC "-//W3C//DTD SVG 1.1//EN" "http://www.w3.org/Graphics/SVG/1.1/DTD/svg11.dtd">
<svg xmlns="http://www.w3.org/2000/svg" version="1.1" width="40" height="40">
    <g id="wk" transform="matrix(0.78030303,0,0,0.78030303,0.99250091,1.3663636)">
        <path d="m 27.67,15.225 v -3.544 h 4.44 V 7.252 H 27.175 V 3.36 H 22.81 v 3.893 h -4.934 v 4.43 h 4.44 v 3.543"
              fill="#f0f0f0" stroke-linecap="round" stroke-width="1.2" stroke="#1e1e1e" id="path1542"/>
        <rect x="20.299" y="14.215" width="9.3979998" height="2.7869999" ry="1.3940001" fill="#f0f0f0"
              stroke-linejoin="round" stroke-width="1.2" stroke="#1e1e1e" id="rect1544"/>
        <path d="m 26.416,14.215 c 0.725,0 1.308,0.621 1.308,1.393 0,0.773 -0.583,1.394 -1.308,1.394 h 1.974 c 0.724,0 1.308,-0.621 1.308,-1.393 0,-0.773 -0.584,-1.394 -1.308,-1.394 z"
              opacity="0.15" id="path1546"/>
        <path d="m 21.631,14.842 c -0.402,0 -0.725,0.345 -0.725,0.773 0,0.427 0.323,0.772 0.725,0.772 h 0.874 c -0.402,0 -0.725,-0.345 -0.725,-0.772 0,-0.428 0.323,-0.773 0.725,-0.773 z"
              fill="#ffffff" id="path1548"/>
        <path d="m 33.635,36.986 c 0,0 7.776,-13.318 6.613,-15.916 -1.164,-2.596 -8.48,-4.497 -15.248,-4.497 -6.768,0 -14.084,1.9 -15.248,4.497 -1.164,2.597 6.612,15.916 6.612,15.916 z"
              fill="#f0f0f0" stroke-linecap="round" stroke-width="1.2" stroke="#1e1e1e" id="path1550"/>
        <path d="m 24.996,16.576 c 15.938,2.622 12.573,9.354 6.64,22.543 l 2.028,-1.729 c 0,0 7.747,-13.723 6.584,-16.32 -1.545,-2.833 -7.503,-4.159 -15.252,-4.494 z"
              opacity="0.15" id="path1552"/>
        <path d="m 23.765,17.295 c -3.904,-0.184 -14.621,1.801 -13.503,5.017 0.817,3.727 2.754,7.244 4.508,10.504 C 9.083,22.481 8.828,19.042 23.765,17.295 Z M 23.391,3.997 23.375,7.309 h 0.546 l 0.016,-3.312 z m -4.931,3.87 -0.008,3.208 h 0.774 l 0.007,-3.208 z m 4.413,3.213 0.025,2.486 h 0.52 L 23.393,11.08 Z"
              fill="#ffffff" id="path1554"/>
        <path d="m 26.189,3.358 v 3.894 h 0.987 V 3.358 Z m 4.441,3.894 v 4.945 h 1.48 V 7.252 Z m -4.44,4.429 v 2.492 h 1.48 v -2.492 z"
              opacity="0.15" id="path1556"/>
        <path d="m 25,36.457 c 0,0 -9.13,0.048 -11.691,1.62 -1.727,1.06 -2.135,3.65 -1.9,6.323 h 27.182 c 0.235,-2.672 -0.172,-5.264 -1.9,-6.324 -2.56,-1.57 -11.69,-1.619 -11.69,-1.619 z"
              fill="#f0f0f0" stroke-linejoin="round" stroke-width="1.2" stroke="#1e1e1e" id="path1558"/>
        <path d="m 25,37.147 c 0,0 -8.712,-0.137 -11.624,1.666 -0.37,0.229 -0.7,0.84 -0.954,1.39 0.261,-0.331 0.503,-0.613 0.887,-0.849 2.56,-1.571 11.691,-1.62 11.691,-1.62 0,0 9.132,0.049 11.692,1.62 0.391,0.24 0.592,0.532 0.856,0.87 0.025,-0.076 -0.409,-1.158 -1.144,-1.596 C 33.648,37.136 25,37.148 25,37.148 Z"
              fill="#ffffff" id="path1560"/>
    </g>
</svg>