<?xml version="1.0" encoding="UTF-8" standalone="no"?>
<!DOCTYPE svg PUBLIC "-//W3C//DTD SVG 1.1//EN" "http://www.w3.org/Graphics/SVG/1.1/DTD/svg11.dtd">
<svg xmlns="http://www.w3.org/2000/svg" version="1.1" width="40" height="40">
    <g id="wn" transform="matrix(0.7833885,0,0,0.78330159,1.0320312,1.1996996)">
        <path d="m 25.192,23.015 c -0.165,6.967 -11.758,5.219 -11.516,18.104 l 22.86,0.118 C 34.442,34.795 46.226,16.077 24.605,8.979 v 0 c 0,0 -2.438,-2.6 -5.965,-2.823 l 0.222,3.534 -4.558,4.582 c -2.63,3.145 -8.735,8.378 -7.751,9.611 3.115,5.304 6.33,4.432 6.33,4.432 4.242,-4.544 5.82,-2.09 12.31,-5.3 z"
              fill="#f0f0f0" stroke="#1e1e1e" stroke-linejoin="round" stroke-width="1.2" id="path1668"/>
        <path d="m 19.32,14.694 c -0.776,0.86 -0.69,1.116 -0.814,2.15 0.806,0.123 1.507,0.24 2.249,0.066 2.38,-1.262 0.075,-3.403 -1.435,-2.216 z"
              opacity="0.35" id="path1670"/>
        <path d="m 9.192,22.166 c -0.85,0.408 -0.999,0.96 -1.057,1.475 0.729,0.419 1.877,-0.125 2.041,-1.431 z"
              opacity="0.3" id="path1672"/>
        <path d="m 8.19,25.15 c 0,0 0.653,1.137 -1.101,-1.641 0.659,-1.977 8.263,-9.08 12.438,-13.534 L 19.343,6.889 c 0,0 1.069,1.69 1.248,3.468 C 16.2,14.747 8.37,21.19 7.767,23.57 c 0.023,0.674 0.24,1.028 0.423,1.58 z"
              fill="#ffffff" id="path1674"/>
        <path d="m 13.26,28.257 c 2.03,-3.337 8.391,-3.224 11.932,-5.242 0.323,0.102 0.13,1.37 0.24,1.23 0.847,-1.09 2.926,-3.28 0.868,-6.875 0.522,5.958 -13.718,5.591 -15.89,10.305 -0.2,0.436 2.182,0.793 2.85,0.582 z"
              opacity="0.15" id="path1676"/>
        <path d="M 25.8,23.781 C 24.787,29.594 16.255,29.898 14.812,36.422 17.645,30.016 25.574,30.708 25.8,23.781 Z"
              fill="#ffffff" id="path1678"/>
        <path d="m 18.64,6.156 c 0,0 3.051,0.738 4.904,3.982 20.5,7.154 7.642,27.937 5.789,31.073 l 7.203,0.026 C 34.55,37.994 46.084,15.64 24.606,8.98 22.83,7.91 21.837,6.37 18.64,6.155 Z"
              opacity="0.15" id="path1680"/>
        <path d="m 25,36.457 c 0,0 -9.13,0.048 -11.691,1.62 -1.727,1.06 -2.135,3.65 -1.9,6.323 h 27.182 c 0.235,-2.672 -0.172,-5.264 -1.9,-6.324 -2.56,-1.57 -11.69,-1.619 -11.69,-1.619 z"
              fill="#f0f0f0" stroke="#1e1e1e" stroke-linejoin="round" stroke-width="1.2" id="path1682"/>
        <path d="m 25,37.147 c 0,0 -8.712,-0.137 -11.624,1.666 -0.37,0.229 -0.7,0.84 -0.954,1.39 0.261,-0.331 0.503,-0.613 0.887,-0.849 C 15.87,37.783 25,37.734 25,37.734 c 0,0 9.132,0.049 11.692,1.62 0.391,0.24 0.592,0.532 0.856,0.87 0.026,-0.076 -0.409,-1.158 -1.144,-1.596 C 33.648,37.136 25,37.148 25,37.148 Z"
              fill="#ffffff" id="path1684"/>
    </g>
</svg>