<?xml version="1.0" encoding="UTF-8" standalone="no"?>
<!DOCTYPE svg PUBLIC "-//W3C//DTD SVG 1.1//EN" "http://www.w3.org/Graphics/SVG/1.1/DTD/svg11.dtd">
<svg xmlns="http://www.w3.org/2000/svg" version="1.1" width="40" height="40">
    <g id="wp" transform="matrix(0.82029849,0,0,0.82029849,-0.5120331,-0.50721691)">
        <path d="m 21.503,27.594 h 6.994 M 19,17.508 c 0,1.732 0.712,3.387 1.966,4.587 l -3.65,2.1 0.43,3.399 h 4.306 c -0.794,3.559 -2.755,7.33 -5.062,8.617 -2.307,1.287 -5.3,3.097 -4.843,8.189 h 25.706 c 0.457,-5.092 -2.535,-6.902 -4.842,-8.189 -2.307,-1.286 -4.268,-5.058 -5.062,-8.617 h 4.306 l 0.43,-3.4 -3.65,-2.099 a 6.352,6.352 0 0 0 1.966,-4.587 c 0,-3.367 -2.628,-5.912 -6,-5.912 -3.373,0 -6.002,2.545 -6.001,5.912 z"
              fill="#f0f0f0" stroke-linejoin="round" stroke-width="1.2" stroke="#1e1e1e" id="path1775"/>
        <path d="m 24.962,11.537 c 1.17,-0.459 9.527,5.906 0.647,10.773 l 4.512,2.1 -0.562,3.125 h 2.659 l 0.428,-3.399 -3.65,-2.1 c 1.253,-1.2 1.962,-2.58 1.964,-4.312 -0.468,-5.416 -5.998,-6.186 -5.998,-6.186 z m -2.949,15.998 c 4.503,7.934 9.47,9.994 13.074,9.965 L 32.972,36.153 C 30.897,34.663 28.24,31.295 27.91,27.535 Z"
              opacity="0.15" id="path1777"/>
        <path d="m 21.983,22.213 -1.647,2.347 -2.356,-0.014 4.013,-2.324 z m 2.324,-9.946 c -2.542,0.138 -5.73,3.173 -4.385,6.918 l 0.199,0.643 c -0.33,-3.489 2.127,-7.116 4.186,-7.561 z m -6.444,25.358 c -3.984,2.305 -5.117,6.14 -5.117,6.14 -0.01,0 -0.548,-4.175 3.956,-6.654 4.504,-2.479 4.822,-6.15 5.86,-8.893 -0.636,3.704 -0.715,7.102 -4.699,9.407 z"
              fill="#ffffff" id="path1779"/>
    </g>
</svg>