<?xml version="1.0" encoding="UTF-8" standalone="no"?>
<!DOCTYPE svg PUBLIC "-//W3C//DTD SVG 1.1//EN" "http://www.w3.org/Graphics/SVG/1.1/DTD/svg11.dtd">
<svg xmlns="http://www.w3.org/2000/svg" version="1.1" width="40" height="40">
    <g id="wq" transform="matrix(0.81370661,0,0,0.81370661,0.1573347,-0.13679755)">
        <path d="m 24.959,5.094 a 2.958,3.316 90 0 0 -3.316,2.958 2.958,3.316 90 0 0 3.316,2.959 2.958,3.316 90 0 0 3.316,-2.959 2.958,3.316 90 0 0 -3.316,-2.958 z"
              fill="#f0f0f0" stroke-linecap="round" stroke-linejoin="round" stroke-width="1.2" stroke="#1e1e1e"
              id="path1856"/>
        <path d="M 24.836,5.732 C 24.46,5.522 21.112,6.538 22.651,9.308 22.416,7.763 23.089,6.105 24.836,5.732 Z"
              fill="#ffffff" id="path1858"/>
        <path d="m 24.959,11.011 c -6.507,0 -9.595,5.884 -9.595,10.358 h 19.263 c 0,-4.474 -3.16,-10.358 -9.668,-10.358 z"
              fill="#f0f0f0" stroke-linecap="round" stroke-linejoin="round" stroke-width="1.2" stroke="#1e1e1e"
              id="path1860"/>
        <path d="m 18.161,14.977 c 1.042,-1.478 2.92,-3.22 6.84,-3.38 -0.31,0.277 -4.788,1.138 -6.84,3.38 z"
              fill="#ffffff" id="path1862"/>
        <path d="m 24.836,5.007 c 0,0 0.046,0.238 0,0 2.48,1.129 2.05,3.847 0.817,5.547 7.354,3.803 2.213,8.669 2.212,8.668 h 2.701 c 1.762,1.287 7.209,-2.741 -3.835,-8.67 3.528,-3.115 0.097,-5.606 -1.895,-5.546 z"
              opacity="0.15" id="path1864"/>
        <path d="m 25,15.225 c -1.971,0 -2.348,2.65 -4.137,2.86 -1.82,0.213 -3.381,-2.312 -5.25,-1.737 -1.495,0.46 -0.778,2.6 -1.805,3.175 -1.402,0.785 -3.185,-1.832 -5.29,-0.298 6.838,8.829 8.085,12.377 7.983,18.819 h 16.998 c -0.103,-6.443 1.144,-9.99 7.983,-18.82 -2.106,-1.533 -3.889,1.084 -5.29,0.3 -1.027,-0.576 -0.311,-2.716 -1.806,-3.176 -1.868,-0.575 -3.429,1.95 -5.25,1.736 -1.789,-0.21 -2.166,-2.86 -4.137,-2.86 z"
              fill="#f0f0f0" stroke-linecap="round" stroke-linejoin="round" stroke-width="1.2" stroke="#1e1e1e"
              id="path1866"/>
        <path d="m 9.895,19.34 c -0.136,-0.01 -0.331,0.056 -0.458,0.085 3.081,4.1 6.575,9.537 7.099,12.417 -1.407,-4.933 -3.267,-9.562 -6.14,-12.472 z"
              fill="#ffffff" id="path1868"/>
        <path d="M 39.974,18.735 C 30.489,28.738 30.05,36.72 23.033,38.045 h 10.476 c -0.103,-6.443 1.145,-9.99 7.983,-18.819 0,0 -0.688,-0.756 -1.518,-0.491 z"
              opacity="0.15" id="path1870"/>
        <path d="m 14.912,18.945 c 0.203,-0.088 1.184,-1.808 1.98,-1.95 -1.42,-0.346 -1.618,-0.046 -1.98,1.95 z m 7.599,-1.069 c 0.953,-0.847 1.633,-2.655 3.238,-1.845 -0.798,-0.23 -2.215,1.04 -3.238,1.845 z m 8.609,0.257 c 0.21,0.07 2.176,-1.642 2.862,-1.218 0,0 -1.43,1.12 -2.862,1.218 z"
              fill="#ffffff" id="path1872"/>
        <path d="m 25,36.457 c 0,0 -9.13,0.048 -11.691,1.62 -1.727,1.06 -2.135,3.65 -1.9,6.323 h 27.182 c 0.235,-2.672 -0.172,-5.264 -1.9,-6.324 -2.56,-1.571 -11.69,-1.62 -11.69,-1.62 z"
              fill="#f0f0f0" stroke-linejoin="round" stroke-width="1.2" stroke="#1e1e1e" id="path1874"/>
        <path d="m 25,37.147 c 0,0 -8.712,-0.137 -11.624,1.666 -0.37,0.229 -0.7,0.84 -0.954,1.39 0.261,-0.331 0.502,-0.613 0.887,-0.849 2.56,-1.571 11.691,-1.62 11.691,-1.62 0,0 9.132,0.049 11.692,1.62 0.391,0.24 0.593,0.532 0.856,0.87 0.026,-0.076 -0.409,-1.158 -1.144,-1.596 C 33.648,37.136 25,37.147 25,37.147 Z"
              fill="#ffffff" id="path1876"/>
    </g>
</svg>