<?xml version="1.0" encoding="UTF-8" standalone="no"?>
<!DOCTYPE svg PUBLIC "-//W3C//DTD SVG 1.1//EN" "http://www.w3.org/Graphics/SVG/1.1/DTD/svg11.dtd">
<svg xmlns="http://www.w3.org/2000/svg" version="1.1" width="40" height="40">
    <g id="wr" transform="matrix(0.84246687,0,0,0.84246687,-1.0662673,-1.4610091)">
        <path d="m 17.932,20.414 c 4.906,-0.74 9.579,-0.578 14.136,0 M 14.183,9.662 c -1.06,8.767 1.103,10.677 3.748,10.752 L 14.616,38.573 H 35.383 L 32.067,20.414 c 2.645,-0.074 4.808,-1.985 3.749,-10.752 l -3.608,-0.53 -1.073,3.644 -3.142,-0.1 -0.522,-3.754 h -4.945 l -0.52,3.754 -3.143,0.1 -1.073,-3.643 z"
              fill="#f0f0f0" stroke-width="1.2" stroke="#1e1e1e" id="path1983"/>
        <path d="m 17.932,20.414 c 6.828,0 13.118,0.408 14.948,16.572 l 2.319,0.386 -3.131,-16.428 C 32.036,20.636 25.98,19.121 17.932,20.414 Z"
              opacity="0.15" id="path1985"/>
        <path d="m 14.777,10.219 2.277,-0.286 c -1.914,0.312 -2.313,5.296 -2.313,5.296 -0.238,-0.177 -0.188,-4.903 0.036,-5.01 z M 25.276,9.55 c -1.648,0 -2.52,2.748 -2.52,2.748 l 0.338,-2.729 z m 7.395,0.266 0.934,0.118 c -0.785,0.5 -1.59,1.989 -1.59,1.989 z m -14.199,11.148 2.62,-0.293 c -2.62,0.293 -4.888,13.113 -4.888,13.113 z"
              fill="#ffffff" id="path1987"/>
        <path d="m 34.013,9.398 c 0.357,6.363 -1.95,10.603 -8.041,10.536 l 4.777,0.563 c 7.523,0.31 5.101,-10.806 5.068,-10.835 z"
              opacity="0.15" id="path1989"/>
        <path d="m 25,36.457 c 0,0 -9.13,0.048 -11.691,1.62 -1.727,1.06 -2.135,3.65 -1.9,6.323 h 27.182 c 0.235,-2.672 -0.172,-5.264 -1.9,-6.324 -2.56,-1.57 -11.69,-1.619 -11.69,-1.619 z"
              fill="#f0f0f0" stroke-linejoin="round" stroke-width="1.2" stroke="#1e1e1e" id="path1991"/>
        <path d="m 25,37.146 c 0,0 -8.712,-0.137 -11.624,1.666 -0.37,0.229 -0.7,0.84 -0.954,1.39 0.261,-0.331 0.503,-0.613 0.887,-0.849 C 15.87,37.782 25,37.733 25,37.733 c 0,0 9.132,0.049 11.692,1.62 0.391,0.24 0.592,0.532 0.856,0.87 0.025,-0.076 -0.409,-1.158 -1.144,-1.596 C 33.648,37.135 25,37.147 25,37.147 Z"
              fill="#ffffff" id="path1993"/>
    </g>
</svg>