<?xml version="1.0" encoding="UTF-8" standalone="no"?>
<!DOCTYPE svg PUBLIC "-//W3C//DTD SVG 1.1//EN" "http://www.w3.org/Graphics/SVG/1.1/DTD/svg11.dtd">
<svg xmlns="http://www.w3.org/2000/svg" version="1.1" width="40" height="40">
    <g id="bb" transform="matrix(0.20524753,0,0,0.20524753,-31.754618,-4.5982875)">
        <path d="m 252.1347,51.711857 c -7.95969,0 -14.40756,3.322204 -14.40756,7.419212 l 5.73354,10.015748 C 182.79927,122.40036 221.89092,171.70808 221.89092,171.70808 h 60.49134 c 0,0 26.64567,-32.77606 2.88378,-73.738585 l -11.30079,18.243775 c -2.53228,4.09701 -7.41543,5.6315 -10.94929,3.44315 -3.53386,-2.18456 -4.33512,-7.24535 -1.80283,-11.33858 L 275.90415,84.593747 A 133.72725,133.72725 0 0 0 260.8125,69.150597 l 5.73354,-10.015748 c 0,-4.100788 -6.45165,-7.422992 -14.40756,-7.422992 z"
              fill="#5f5955" stroke-linejoin="round" stroke-width="4.53543" stroke="#010101" id="path666"/>
        <path d="m 252.1347,51.711857 c -3.08409,0 -5.93764,0.506456 -8.28094,1.353071 16.39559,3.205039 18.80692,4.23307 9.67559,16.444724 l 12.26834,13.481575 c -13.82173,31.143303 -6.06236,30.202203 -6.06236,30.202203 0,0 2.63055,-10.00819 15.54142,-29.359368 A 134.91402,134.91402 0 0 0 260.8125,69.146817 l 5.72976,-10.015748 c 0,-4.097008 -6.44787,-7.419212 -14.40756,-7.419212 z m 33.12756,46.253858 -3.81354,5.718425 c 14.12409,31.79717 -15.62457,68.02016 -15.62457,68.02016 h 16.55811 c 0.59716,0.1285 26.29795,-33.42614 2.88,-73.738585 z"
              opacity="0.18" id="path668" style="stroke-width:3.77953"/>
        <path d="m 214.88746,149.80572 c -0.8315,-0.11717 -12.93733,-36.98646 21.7474,-70.869926 -8.70048,7.162205 -26.96693,49.749926 -21.7474,70.869926 z M 245.67927,68.451384 240.0969,58.64729 c 0,0 0.91465,-2.728819 6.72756,-3.960945 -6.52346,5.102362 -3.73039,6.285354 -1.14519,13.765039 z"
              fill="#ffffff" opacity="0.25" id="path670" style="stroke-width:3.77953"/>
        <path d="m 252.1347,167.70556 c 0,0 -34.50709,0.18142 -44.18646,6.12283 -6.52724,4.0063 -8.06929,13.79528 -7.1811,23.89796 h 102.73512 c 0.88819,-10.0989 -0.65008,-19.89544 -7.1811,-23.90174 -9.67559,-5.93385 -44.18268,-6.11905 -44.18268,-6.11905 z"
              fill="#5f5955" stroke-linejoin="round" stroke-width="4.53543" stroke="#010101" id="path672"/>
        <path d="m 252.1347,170.31343 c 0,0 -32.92724,-0.51779 -43.93323,6.2967 -1.39842,0.86551 -2.64567,3.1748 -3.60567,5.25354 0.98646,-1.25102 1.89732,-2.31685 3.35244,-3.2126 9.67559,-5.93008 44.18646,-6.1115 44.18646,-6.1115 0,0 34.51465,0.18142 44.19024,6.11906 1.47779,0.90709 2.23748,2.01071 3.23527,3.28819 0.0983,-0.28725 -1.54582,-4.37669 -4.32378,-6.03213 -10.41638,-5.64283 -43.10173,-5.60126 -43.10173,-5.60126 z"
              fill="#ffffff" opacity="0.25" id="path674" style="stroke-width:3.77953"/>
    </g>
</svg>